<?xml version="1.0" encoding="UTF-8"?>
<svg version="1.1" xmlns="http://www.w3.org/2000/svg" width="100" height="100">
<path d="M0 0 C10.56 0 21.12 0 32 0 C32 2.31 32 4.62 32 7 C30.02 7 28.04 7 26 7 C26 8.65 26 10.3 26 12 C27.98 12 29.96 12 32 12 C32 14.31 32 16.62 32 19 C34.31 19 36.62 19 39 19 C39 20.98 39 22.96 39 25 C40.98 25 42.96 25 45 25 C45 37.54 45 50.08 45 63 C43.02 63 41.04 63 39 63 C39 65.31 39 67.62 39 70 C36.69 70 34.38 70 32 70 C32 71.98 32 73.96 32 76 C30.02 76 28.04 76 26 76 C26 77.98 26 79.96 26 82 C13.46 82 0.92 82 -12 82 C-12 80.02 -12 78.04 -12 76 C-13.98 76 -15.96 76 -18 76 C-18 74.02 -18 72.04 -18 70 C-20.31 70 -22.62 70 -25 70 C-25 67.69 -25 65.38 -25 63 C-26.98 63 -28.96 63 -31 63 C-31 50.46 -31 37.92 -31 25 C-29.02 25 -27.04 25 -25 25 C-25 23.02 -25 21.04 -25 19 C-22.69 19 -20.38 19 -18 19 C-18 16.69 -18 14.38 -18 12 C-16.02 12 -14.04 12 -12 12 C-12 10.02 -12 8.04 -12 6 C-8.04 6 -4.08 6 0 6 C0 4.02 0 2.04 0 0 Z " fill="#F09006" transform="translate(43,9)"/>
<path d="M0 0 C10.56 0 21.12 0 32 0 C32 2.31 32 4.62 32 7 C30.02 7 28.04 7 26 7 C26 8.98 26 10.96 26 13 C23.69 13 21.38 13 19 13 C19 14.98 19 16.96 19 19 C10.75 19 2.5 19 -6 19 C-6 14.71 -6 10.42 -6 6 C-4.02 6 -2.04 6 0 6 C0 4.02 0 2.04 0 0 Z " fill="#09943D" transform="translate(43,9)"/>
<path d="M0 0 C1.98 0 3.96 0 6 0 C6 2.31 6 4.62 6 7 C4.02 7 2.04 7 0 7 C0 4.69 0 2.38 0 0 Z " fill="#962233" transform="translate(44,59)"/>
<path d="M0 0 C1.98 0 3.96 0 6 0 C6 2.31 6 4.62 6 7 C4.02 7 2.04 7 0 7 C0 4.69 0 2.38 0 0 Z " fill="#962233" transform="translate(19,59)"/>
<path d="M0 0 C1.98 0 3.96 0 6 0 C6 1.98 6 3.96 6 6 C4.02 6 2.04 6 0 6 C0 4.02 0 2.04 0 0 Z " fill="#901A36" transform="translate(31,72)"/>
</svg>
